<?xml version="1.0" standalone="no"?>
<!DOCTYPE svg PUBLIC "-//W3C//DTD SVG 20010904//EN"
 "http://www.w3.org/TR/2001/REC-SVG-20010904/DTD/svg10.dtd">
<svg version="1.0" xmlns="http://www.w3.org/2000/svg"
 width="520.000000pt" height="520.000000pt" viewBox="0 0 520.000000 520.000000"
 preserveAspectRatio="xMidYMid meet">
<metadata>
Created by potrace 1.11, written by Peter Selinger 2001-2013
</metadata>
<g transform="translate(0.000000,520.000000) scale(0.100000,-0.100000)"
fill="#000000" stroke="none">
<path d="M0 2600 l0 -2600 2600 0 2600 0 0 2600 0 2600 -2600 0 -2600 0 0
-2600z m2980 1685 l0 -125 -220 0 -220 0 0 -651 c0 -628 1 -650 18 -637 10 7
344 299 741 648 l723 635 -186 3 -186 2 0 125 0 125 575 0 575 0 0 -125 0
-125 -194 0 -195 0 -741 -651 -742 -652 828 -828 829 -829 197 0 198 0 0 -125
0 -125 -402 0 -403 0 -817 822 -817 823 0 -697 -1 -698 220 0 220 0 0 -125 0
-125 -455 0 -455 0 0 191 0 192 -49 -74 c-125 -191 -274 -298 -488 -351 -128
-32 -371 -32 -496 0 -375 94 -658 422 -755 873 -84 390 -41 823 113 1129 144
286 371 477 652 547 105 26 370 24 485 -5 226 -56 400 -187 513 -384 l25 -43
0 568 0 567 -220 0 -220 0 0 125 0 125 675 0 675 0 0 -125z"/>
<path d="M1260 3195 c-176 -40 -304 -144 -390 -318 -83 -168 -117 -332 -127
-617 -19 -544 116 -915 380 -1045 238 -117 542 -74 716 102 79 81 123 154 162
265 55 162 64 240 64 598 0 358 -8 435 -64 598 -72 209 -210 348 -401 406 -77
24 -258 30 -340 11z"/>
</g>
</svg>
